<svg width="40" height="40" viewBox="0 0 40 40" fill="none" xmlns="http://www.w3.org/2000/svg">
<g clip-path="url(#clip0)">
<path d="M10 40.0003C15.52 40.0003 20 37.0137 20 33.3337V26.667H10C4.48 26.667 0 29.6537 0 33.3337C0 37.0137 4.48 40.0003 10 40.0003Z" fill="#0ACF83"/>
<path d="M0 19.9997C0 16.3197 4.48 13.333 10 13.333H20V26.6663H10C4.48 26.6663 0 23.6797 0 19.9997Z" fill="#A259FF"/>
<path d="M0 6.66667C0 2.98667 4.48 0 10 0H20V13.3333H10C4.48 13.3333 0 10.3467 0 6.66667Z" fill="#F24E1E"/>
<path d="M20 0H30C35.52 0 40 2.98667 40 6.66667C40 10.3467 35.52 13.3333 30 13.3333H20V0Z" fill="#FF7262"/>
<path d="M40 19.9997C40 23.6797 35.52 26.6663 30 26.6663C24.48 26.6663 20 23.6797 20 19.9997C20 16.3197 24.48 13.333 30 13.333C35.52 13.333 40 16.3197 40 19.9997Z" fill="#1ABCFE"/>
</g>
<defs>
<clipPath id="clip0">
<rect width="40" height="40" fill="white"/>
</clipPath>
</defs>
</svg>
