<svg width="58" height="52" viewBox="0 0 58 52" fill="none" xmlns="http://www.w3.org/2000/svg">
<path d="M14.5908 38.8536C14.1377 38.7738 13.7752 38.6939 13.322 38.5343C12.8689 38.3746 12.5064 38.2948 12.1439 38.1351C11.3283 37.8158 10.6033 37.4166 9.87828 36.9376C8.42828 36.0595 7.25016 34.862 6.34391 33.425C5.43766 32.0678 4.89391 30.4711 4.80329 28.9543C4.71266 28.156 4.80329 27.4375 4.89391 26.6391C4.98454 26.24 5.07516 25.9206 5.16578 25.5215C5.25641 25.1223 5.43766 24.803 5.52828 24.4038L5.61891 25.5215C5.61891 25.9206 5.70954 26.24 5.80016 26.6391C5.89079 27.3576 6.07204 28.0761 6.25329 28.7148C6.61579 30.072 7.15954 31.3493 7.97516 32.5468C8.79079 33.7443 9.69704 34.862 10.8752 35.8998C11.4189 36.3788 12.0533 36.8578 12.6877 37.3368C12.9595 37.5763 13.322 37.8158 13.6845 38.0553L14.5908 38.8536Z" fill="#42ADE2"/>
<path d="M14.3188 41.7275C14.0469 41.8871 13.6844 41.967 13.3219 42.0468C12.9594 42.1266 12.6875 42.2065 12.325 42.2065C11.6906 42.2863 10.9656 42.3661 10.2406 42.2863C8.88125 42.2065 7.43125 41.8871 6.25313 41.3283C4.98438 40.7695 3.89687 39.8913 3.17188 38.8535C2.80937 38.3745 2.44688 37.8157 2.175 37.2568C2.08438 37.0173 1.99375 36.698 1.90312 36.3787C1.90312 36.1392 1.8125 35.8997 1.8125 35.5803C2.08438 35.8198 2.26563 35.9795 2.44688 36.219C2.71875 36.4585 2.9 36.698 3.08125 36.8577C3.53438 37.2568 3.89688 37.656 4.35 37.9753C5.25625 38.6938 6.1625 39.3325 7.25 39.8115C8.24687 40.2905 9.425 40.6896 10.5125 41.009C11.0563 41.1686 11.6906 41.2485 12.325 41.4081C12.5969 41.488 12.9594 41.488 13.2313 41.5678C13.6844 41.6476 13.9563 41.6476 14.3188 41.7275Z" fill="#42ADE2"/>
<path d="M34.7999 2.92896C35.2531 3.00879 35.6156 3.16845 36.0687 3.32812C36.5218 3.48779 36.8843 3.64745 37.2468 3.80712C38.0624 4.20629 38.7874 4.60545 39.5124 5.08445C40.9624 6.04245 42.1406 7.31978 42.9562 8.75678C43.7718 10.1938 44.2249 11.7904 44.2249 13.3073C44.2249 14.1056 44.1343 14.8241 43.9531 15.6224C43.8624 16.0216 43.7718 16.3409 43.5906 16.7401C43.4093 17.1393 43.3187 17.4586 43.1374 17.7779L43.0468 16.6603C43.0468 16.2611 43.0468 15.9418 42.9562 15.5426L42.6843 13.3871C42.4124 12.0299 41.8687 10.6728 41.1437 9.39545C40.4187 8.11811 39.5124 7.00045 38.4249 5.96262C37.8812 5.40378 37.2468 4.92479 36.7031 4.36595C36.4312 4.12645 36.0687 3.88695 35.7062 3.64745L34.7999 2.92896Z" fill="#42ADE2"/>
<path d="M42.6844 2.60938C43.0469 2.68921 43.3188 2.76904 43.5907 2.92871C43.8626 3.00854 44.2251 3.16821 44.4969 3.32787C45.0407 3.64721 45.5844 3.96654 46.1282 4.36571C47.1251 5.16404 47.9407 6.12204 48.3938 7.2397C48.9376 8.35737 49.1188 9.55487 48.9376 10.7524C48.8469 11.3112 48.6657 11.87 48.4844 12.4289C48.3938 12.6684 48.2126 12.9877 48.1219 13.2272C47.9407 13.4667 47.8501 13.7062 47.5782 13.9457V12.349C47.5782 11.7902 47.4876 11.3112 47.4876 10.8322C47.3063 9.79436 47.1251 8.83637 46.6719 7.9582C46.2188 7.0002 45.6751 6.20187 45.0407 5.3237C44.6782 4.92454 44.3157 4.44554 43.9532 4.04637C43.7719 3.80687 43.5907 3.64721 43.3188 3.40771C43.1376 3.00854 42.8657 2.76904 42.6844 2.60938Z" fill="#42ADE2"/>
<path d="M9.06258 14.5046C7.25008 15.2231 6.6157 17.1391 7.43133 18.7358L18.8501 39.7319L25.1938 37.0974L13.7751 16.0215C12.9595 14.4248 10.8751 13.7063 9.06258 14.5046Z" fill="#D6A57C"/>
<path d="M39.0595 31.1899L45.7658 28.3159L32.7158 4.36593C31.8095 2.76927 29.6345 2.05077 27.7314 2.8491C25.9189 3.64743 25.1033 5.56343 26.0095 7.23993L39.0595 31.1899Z" fill="#D6A57C"/>
<path d="M27.8219 2.84884C27.6407 2.92868 27.4594 3.00851 27.2782 3.16817C29.0001 2.76901 30.8126 3.48751 31.6282 4.92451L44.6782 28.8745L45.8563 28.3955L32.8063 4.44551C31.9001 2.76901 29.7251 2.05051 27.8219 2.84884Z" fill="#B58360"/>
<path d="M25.1937 37.0175L32.1718 34.0636L18.8499 9.63465C17.9437 7.95816 15.5874 7.15982 13.6843 7.95816C11.7812 8.75649 10.9656 10.8322 11.8718 12.5087L25.1937 37.0175Z" fill="#D6A57C"/>
<path d="M13.6844 8.03808C13.5031 8.11791 13.3219 8.19774 13.1406 8.35741C14.8625 7.95824 16.8562 8.67674 17.6719 10.1936L25.9187 25.4417L27.9125 26.4796L18.85 9.71458C17.9437 7.95824 15.6781 7.23975 13.6844 8.03808Z" fill="#B58360"/>
<path d="M31.0843 32.1477L38.0624 29.1939L24.7406 4.76491C23.8343 3.08841 21.4781 2.29008 19.5749 3.16825C17.6718 3.96658 16.8562 6.04224 17.7624 7.71874L31.0843 32.1477Z" fill="#D6A57C"/>
<path d="M19.575 3.08886C19.3938 3.16869 19.2125 3.32836 19.0312 3.40819C20.7531 3.00903 22.7469 3.72752 23.5625 5.24436L32.8969 22.4883L34.8906 23.5262L24.7406 4.76536C23.8344 3.00903 21.4781 2.29053 19.575 3.08886Z" fill="#B58360"/>
<path d="M9.06243 14.5051C8.88118 14.5849 8.69993 14.6648 8.51868 14.8244C10.1499 14.4253 11.8718 15.1438 12.5968 16.5808L19.3937 29.1146L21.3874 30.1524L13.7749 16.1018C12.9593 14.4253 10.8749 13.7068 9.06243 14.5051Z" fill="#B58360"/>
<path d="M55.0999 12.1097C52.653 10.4332 48.6655 12.2694 46.6718 18.0173C45.3124 22.009 45.1312 23.2065 42.2312 24.404L40.5999 21.4502C40.5999 21.4502 14.8624 32.3873 15.8593 34.1437C15.8593 34.1437 18.9405 42.606 24.1968 46.5178C31.9905 52.3456 50.2062 46.1186 51.0218 30.8705C51.4749 22.009 57.728 13.9458 55.0999 12.1097Z" fill="#D6A57C"/>
<path d="M55.0999 12.1096C54.6468 11.7903 54.1031 11.6306 53.5593 11.5508C53.6499 11.6306 53.8312 11.6306 53.9218 11.7104C56.6406 13.5466 53.8312 17.7778 52.2906 21.6098C51.0218 24.6434 49.9343 27.7569 50.1156 30.7906C50.8406 44.0429 35.7062 50.3497 26.6437 47.9547C35.5249 51.2279 52.0187 45.0009 51.2937 31.1898C51.1124 28.1561 52.1093 25.2023 53.4687 22.0089C54.9187 18.1769 57.7281 13.9458 55.0999 12.1096Z" fill="#B58360"/>
<path d="M43.0469 24.0847C37.4281 24.6435 29.1813 31.7487 34.9813 39.4925C30.7219 31.6689 37.7 26.3999 42.1406 24.5637C42.5938 24.2444 43.0469 24.0847 43.0469 24.0847Z" fill="#B58360"/>
</svg>
