<svg width="60" height="60" viewBox="0 0 60 60" fill="none" xmlns="http://www.w3.org/2000/svg">
<path d="M53.2283 18.2551C52.9544 17.2234 52.4142 16.2819 51.6619 15.5248C50.9095 14.7676 49.9715 14.2214 48.9416 13.9409C45.1608 12.9209 30 12.9209 30 12.9209C30 12.9209 14.8391 12.9209 11.0583 13.9409C10.0285 14.2214 9.09039 14.7676 8.33807 15.5248C7.58574 16.2819 7.04556 17.2234 6.77163 18.2551C5.7583 22.0601 5.7583 30.0001 5.7583 30.0001C5.7583 30.0001 5.7583 37.9401 6.77163 41.7459C7.04556 42.7775 7.58574 43.719 8.33807 44.4762C9.09039 45.2334 10.0285 45.7795 11.0583 46.0601C14.8391 47.0792 30 47.0792 30 47.0792C30 47.0792 45.1608 47.0792 48.9416 46.0601C49.9715 45.7795 50.9095 45.2334 51.6619 44.4762C52.4142 43.719 52.9544 42.7775 53.2283 41.7459C54.2416 37.9401 54.2416 30.0001 54.2416 30.0001C54.2416 30.0001 54.2416 22.0601 53.2283 18.2551Z" fill="#EA5A47"/>
<path d="M25.0417 37.2082L37.7134 29.9998L25.0417 22.7915V37.2082Z" fill="white"/>
<path d="M53.2283 18.2551C52.9544 17.2234 52.4142 16.2819 51.6619 15.5248C50.9095 14.7676 49.9715 14.2214 48.9416 13.9409C45.1608 12.9209 30 12.9209 30 12.9209C30 12.9209 14.8391 12.9209 11.0583 13.9409C10.0285 14.2214 9.09039 14.7676 8.33807 15.5248C7.58574 16.2819 7.04556 17.2234 6.77163 18.2551C5.7583 22.0601 5.7583 30.0001 5.7583 30.0001C5.7583 30.0001 5.7583 37.9401 6.77163 41.7459C7.04556 42.7775 7.58574 43.719 8.33807 44.4762C9.09039 45.2334 10.0285 45.7795 11.0583 46.0601C14.8391 47.0792 30 47.0792 30 47.0792C30 47.0792 45.1608 47.0792 48.9416 46.0601C49.9715 45.7795 50.9095 45.2334 51.6619 44.4762C52.4142 43.719 52.9544 42.7775 53.2283 41.7459C54.2416 37.9401 54.2416 30.0001 54.2416 30.0001C54.2416 30.0001 54.2416 22.0601 53.2283 18.2551Z" stroke="black" stroke-width="0.5" stroke-miterlimit="10"/>
<path d="M25.0416 37.2082L37.7133 29.9998L25.0416 22.7915V37.2082Z" stroke="black" stroke-width="0.5" stroke-miterlimit="10" stroke-linecap="round" stroke-linejoin="round"/>
</svg>
