<svg width="60" height="60" viewBox="0 0 60 60" fill="none" xmlns="http://www.w3.org/2000/svg">
<path d="M48.3333 9.16675H11.6666C10.2859 9.16675 9.16663 10.286 9.16663 11.6667V48.3334C9.16663 49.7141 10.2859 50.8334 11.6666 50.8334H48.3333C49.714 50.8334 50.8333 49.7141 50.8333 48.3334V11.6667C50.8333 10.286 49.714 9.16675 48.3333 9.16675Z" fill="#61B2E4"/>
<path d="M16.6666 25H21.6666V42.5H16.6666V25Z" fill="white"/>
<path d="M19.1667 21.2501C20.7775 21.2501 22.0833 19.9442 22.0833 18.3334C22.0833 16.7226 20.7775 15.4167 19.1667 15.4167C17.5558 15.4167 16.25 16.7226 16.25 18.3334C16.25 19.9442 17.5558 21.2501 19.1667 21.2501Z" fill="white"/>
<path d="M35.4167 29.1666C33.5759 29.1666 32.0834 30.1399 32.0834 32.9166V42.4999H27.0834V24.9999H32.0834V26.8416H32.0817C32.7067 26.131 33.4762 25.5619 34.3388 25.1725C35.2013 24.783 36.137 24.5822 37.0834 24.5833C40.765 24.5833 43.75 27.3333 43.75 32.0833V42.4999H38.75V32.9166C38.75 30.1399 37.2584 29.1666 35.4167 29.1666Z" fill="white"/>
<path d="M48.3333 9.16675H11.6666C10.2859 9.16675 9.16663 10.286 9.16663 11.6667V48.3334C9.16663 49.7141 10.2859 50.8334 11.6666 50.8334H48.3333C49.714 50.8334 50.8333 49.7141 50.8333 48.3334V11.6667C50.8333 10.286 49.714 9.16675 48.3333 9.16675Z" stroke="black" stroke-width="0.5" stroke-miterlimit="10"/>
<path d="M16.6666 25H21.6666V42.5H16.6666V25Z" stroke="black" stroke-width="0.5" stroke-linecap="round" stroke-linejoin="round"/>
<path d="M19.1667 21.2501C20.7775 21.2501 22.0833 19.9442 22.0833 18.3334C22.0833 16.7226 20.7775 15.4167 19.1667 15.4167C17.5558 15.4167 16.25 16.7226 16.25 18.3334C16.25 19.9442 17.5558 21.2501 19.1667 21.2501Z" stroke="black" stroke-width="0.5" stroke-linecap="round" stroke-linejoin="round"/>
<path d="M35.4166 29.1668C33.5758 29.1668 32.0833 30.1402 32.0833 32.9168V42.5002H27.0833V25.0002H32.0833V26.8418H32.0816C32.7066 26.1312 33.4761 25.5622 34.3386 25.1727C35.2012 24.7833 36.1369 24.5824 37.0833 24.5835C40.7649 24.5835 43.7499 27.3335 43.7499 32.0835V42.5002H38.7499V32.9168C38.7499 30.1402 37.2583 29.1668 35.4166 29.1668Z" stroke="black" stroke-width="0.5" stroke-linecap="round" stroke-linejoin="round"/>
</svg>
