<svg width="60" height="60" viewBox="0 0 60 60" fill="none" xmlns="http://www.w3.org/2000/svg">
<path d="M47.0859 46.2323C47.0859 49.4486 39.5391 52.0402 30.2344 52.0402C20.9297 52.0402 13.3828 49.4255 13.3828 46.2323C13.3828 43.0159 20.9297 40.4243 30.2344 40.4243C39.5391 40.4243 47.0859 43.0159 47.0859 46.2323Z" fill="#9EDCF2"/>
<path d="M47.0859 46.2323C47.0859 49.4486 39.5391 52.0402 30.2344 52.0402C20.9297 52.0402 13.3828 49.4255 13.3828 46.2323C13.3828 43.0159 20.9297 40.4243 30.2344 40.4243C39.5391 40.4243 47.0859 43.0159 47.0859 46.2323Z" fill="#7DBCE7"/>
<path d="M10.9922 29.1323L10.5 30.7983C10.5 30.7983 10.3828 31.4 10.9453 31.5157C11.5547 31.4925 11.5078 30.9372 11.4609 30.7752L10.9922 29.1323Z" fill="#9EDCF2"/>
<path d="M59.9531 22.1211L60 21.9128C55.0547 20.941 49.9922 20.9179 46.9219 21.0567C47.4141 19.275 47.5781 17.1924 47.5781 14.9017C47.5781 11.5928 46.3125 8.95488 44.2969 6.96491C44.6484 5.83109 45.1172 3.30891 43.8281 0.0925609C43.8281 0.0925609 41.5312 -0.624755 36.3047 2.82299C34.2656 2.31393 32.0859 2.0594 29.9062 2.0594C27.5156 2.0594 25.1016 2.36021 22.8281 2.96182C17.4375 -0.671033 15.0703 0.0694217 15.0703 0.0694217C13.5234 3.88739 14.4844 6.73352 14.7656 7.42769C12.9375 9.37139 11.8359 11.8473 11.8359 14.8785C11.8359 17.1693 12.0938 19.2287 12.75 21.0104C9.65625 20.8947 4.78125 20.941 0 21.8897L0.046875 22.098C4.82812 21.1493 9.75 21.1261 12.8203 21.2418C12.9609 21.612 13.125 21.9823 13.2891 22.3294C10.2422 22.4219 5.0625 22.8153 0.09375 24.2036L0.164062 24.4119C5.17969 23.0235 10.4062 22.6533 13.4297 22.5607C15.2578 25.8928 18.8203 28.0679 25.1953 28.7389C24.2812 29.3405 23.3672 30.3587 22.9922 32.0941C21.75 32.6726 17.8594 34.1072 15.5156 30.1273C15.5156 30.1273 14.2031 27.7671 11.6953 27.582C11.6953 27.582 9.25781 27.5357 11.5312 29.086C11.5312 29.086 13.1484 29.8496 14.2734 32.6957C14.2734 32.6957 15.75 37.555 22.8047 35.9815V40.9564C22.8047 40.9564 22.6641 42.7382 21 43.3166C21 43.3166 20.0156 43.9877 21.0703 44.3579C21.0703 44.3579 25.6406 44.7281 25.6406 41.0259V35.565C25.6406 35.565 25.4531 33.3899 26.5312 32.6495V41.6275C26.5312 41.6275 26.4609 43.7794 25.3359 44.5893C25.3359 44.5893 24.5859 45.9082 26.2266 45.5611C26.2266 45.5611 29.3672 45.1215 29.5078 41.4886L29.5781 32.3949H30.3281L30.3984 41.4886C30.5391 45.0984 33.6797 45.5611 33.6797 45.5611C35.3203 45.9314 34.5703 44.5893 34.5703 44.5893C33.4453 43.7794 33.375 41.6275 33.375 41.6275V32.7189C34.4531 33.5519 34.2656 35.565 34.2656 35.565V41.0259C34.2656 44.7281 38.8359 44.3579 38.8359 44.3579C39.8906 43.9877 38.9062 43.3166 38.9062 43.3166C37.2656 42.715 37.1016 40.9564 37.1016 40.9564V33.7833C37.1016 30.9834 35.9062 29.5025 34.7344 28.7389C41.5312 28.0679 44.7891 25.9159 46.2891 22.5376C49.2656 22.607 54.6328 22.9773 59.7422 24.4119L59.8125 24.2036C54.7266 22.7921 49.4062 22.4219 46.3828 22.3294C46.5234 21.9823 46.6406 21.6352 46.7578 21.265C49.8984 21.1493 54.9844 21.1493 59.9531 22.1211Z" fill="#010101"/>
<path d="M40.9219 14.7399C42.375 16.0588 43.2422 17.6323 43.2422 19.3214C43.2422 27.2813 37.2422 27.4896 29.8359 27.4896C22.4297 27.4896 16.4297 26.3789 16.4297 19.3214C16.4297 17.6323 17.2734 16.0588 18.7266 14.763C21.1406 12.5879 25.2188 13.7449 29.8359 13.7449C34.4531 13.7449 38.5078 12.5648 40.9219 14.7399Z" fill="#F5CCB3"/>
<path d="M25.3828 19.7378C25.3828 21.936 24.1406 23.6946 22.5938 23.6946C21.0469 23.6946 19.8047 21.9129 19.8047 19.7378C19.8047 17.5396 21.0469 15.781 22.5938 15.781C24.1406 15.7578 25.3828 17.5396 25.3828 19.7378Z" fill="white"/>
<path d="M24.4922 19.7841C24.4922 21.2419 23.6484 22.422 22.6406 22.422C21.6094 22.422 20.7891 21.2419 20.7891 19.7841C20.7891 18.3263 21.6328 17.1462 22.6406 17.1462C23.6484 17.1462 24.4922 18.3263 24.4922 19.7841Z" fill="#AF5C51"/>
<path d="M40.3594 19.7378C40.3594 21.936 39.1172 23.6946 37.5703 23.6946C36.0234 23.6946 34.7812 21.9129 34.7812 19.7378C34.7812 17.5396 36.0234 15.781 37.5703 15.781C39.0937 15.7578 40.3594 17.5396 40.3594 19.7378Z" fill="white"/>
<path d="M39.4453 19.7841C39.4453 21.2419 38.6016 22.422 37.5937 22.422C36.5625 22.422 35.7422 21.2419 35.7422 19.7841C35.7422 18.3263 36.5859 17.1462 37.5937 17.1462C38.625 17.1462 39.4453 18.3263 39.4453 19.7841Z" fill="#AF5C51"/>
<path d="M30.5859 23.255C30.5859 23.6252 30.2812 23.9491 29.8828 23.9491C29.5078 23.9491 29.1797 23.6483 29.1797 23.255C29.1797 22.8616 29.4844 22.5608 29.8828 22.5608C30.2578 22.5608 30.5859 22.8616 30.5859 23.255Z" fill="#AF5C51"/>
<path d="M28.2657 24.9904C28.2188 24.8747 28.2891 24.759 28.4063 24.7127C28.5235 24.6665 28.6407 24.7359 28.6875 24.8516C28.875 25.3606 29.3438 25.6846 29.8828 25.6846C30.4219 25.6846 30.8907 25.3375 31.0782 24.8516C31.125 24.7359 31.2422 24.6665 31.3594 24.7127C31.4766 24.759 31.5469 24.8747 31.5 24.9904C31.2657 25.6614 30.6094 26.1242 29.8828 26.1242C29.1563 26.1242 28.5 25.6614 28.2657 24.9904Z" fill="#AF5C51"/>
<path d="M12.7734 28.1374C12.7734 28.3225 12.5625 28.4614 12.2813 28.4614C12.0234 28.4614 11.7891 28.3225 11.7891 28.1374C11.7891 27.9523 12 27.8135 12.2813 27.8135C12.5625 27.8135 12.7734 27.9523 12.7734 28.1374Z" fill="#C4E5D9"/>
<path d="M14.1328 28.8777C14.1328 29.0628 13.9219 29.2016 13.6406 29.2016C13.3828 29.2016 13.1484 29.0628 13.1484 28.8777C13.1484 28.6925 13.3594 28.5537 13.6406 28.5537C13.9219 28.5537 14.1328 28.6925 14.1328 28.8777Z" fill="#C4E5D9"/>
<path d="M14.9531 29.8496C14.9531 30.0347 14.7422 30.1736 14.4609 30.1736C14.2031 30.1736 13.9688 30.0347 13.9688 29.8496C13.9688 29.6645 14.1797 29.5256 14.4609 29.5256C14.7422 29.5025 14.9531 29.6645 14.9531 29.8496Z" fill="#C4E5D9"/>
<path d="M15.7031 30.9602C15.7031 31.1453 15.4922 31.2841 15.2109 31.2841C14.9531 31.2841 14.7188 31.1453 14.7188 30.9602C14.7188 30.7751 14.9297 30.6362 15.2109 30.6362C15.4922 30.6131 15.7031 30.7751 15.7031 30.9602Z" fill="#C4E5D9"/>
<path d="M16.5234 31.9785C16.5234 32.1636 16.3125 32.3024 16.0312 32.3024C15.7734 32.3024 15.5391 32.1636 15.5391 31.9785C15.5391 31.7934 15.75 31.6545 16.0312 31.6545C16.3125 31.6545 16.5234 31.7934 16.5234 31.9785Z" fill="#C4E5D9"/>
<path d="M17.6484 32.8808C17.6484 33.066 17.4375 33.2048 17.1562 33.2048C16.8984 33.2048 16.6641 33.066 16.6641 32.8808C16.6641 32.6957 16.875 32.5569 17.1562 32.5569C17.4375 32.5338 17.6484 32.6957 17.6484 32.8808Z" fill="#C4E5D9"/>
<path d="M19.2188 33.4594C19.2188 33.6446 19.0078 33.7834 18.7266 33.7834C18.4687 33.7834 18.2344 33.6446 18.2344 33.4594C18.2344 33.2743 18.4453 33.1355 18.7266 33.1355C19.0078 33.1355 19.2188 33.2743 19.2188 33.4594Z" fill="#C4E5D9"/>
<path d="M20.7891 33.4594C20.7891 33.6446 20.5781 33.7834 20.2969 33.7834C20.0391 33.7834 19.8047 33.6446 19.8047 33.4594C19.8047 33.2743 20.0156 33.1355 20.2969 33.1355C20.5781 33.1355 20.7891 33.2743 20.7891 33.4594Z" fill="#C4E5D9"/>
<path d="M22.3828 33.2048C22.3828 33.3899 22.1719 33.5288 21.8906 33.5288C21.6328 33.5288 21.3984 33.3899 21.3984 33.2048C21.3984 33.0197 21.6094 32.8809 21.8906 32.8809C22.1484 32.8809 22.3828 33.0197 22.3828 33.2048Z" fill="#C4E5D9"/>
</svg>
