<svg width="40" height="40" viewBox="0 0 40 40" fill="none" xmlns="http://www.w3.org/2000/svg">
<path d="M23.25 0C26.054 5.09138 13.196 8.21021 12 12.4538C10.906 16.3481 19.618 20.9163 19.626 20.9163C18.296 19.3054 17.328 17.9468 16 15.4342C13.75 11.1906 29.71 7.36242 23.25 0ZM31.75 7.06854C31.75 7.06854 20.508 7.61476 19.938 13.2708C19.678 15.7896 22.906 17.1113 23 18.9453C23.08 20.4409 21.062 21.6841 21.062 21.6841C21.062 21.6841 24.68 21.181 25.812 18.8961C27.062 16.3604 23.376 14.6294 23.75 12.5969C24.11 10.6567 31.75 7.06854 31.75 7.06854ZM34.5 20.0978C33.32 20.0562 31.992 20.3932 30.812 21.0594C33.14 20.664 35.126 21.7872 35.126 23.0797C35.126 25.977 29.75 28.705 29.75 28.705C29.75 28.705 38.062 27.9895 38.062 23.2243C38.062 21.2579 36.462 20.1701 34.5 20.0978ZM12.438 20.147C9.538 20.224 3.75 20.5917 3.75 22.3104C3.75 24.703 17.234 24.8891 26.876 23.4166C26.876 23.4166 29.5 22.0103 30.188 21.4933C23.868 22.5027 9.438 22.6596 9.438 21.7811C9.438 20.9764 14.062 20.147 14.062 20.147C14.062 20.147 13.406 20.1224 12.438 20.147ZM11.562 24.5706C9.976 24.5706 7.624 25.52 7.624 26.4447C7.624 28.308 19.564 29.7389 28.376 27.0217L25.312 25.58C19.336 27.0832 8.296 26.5832 11.562 24.5706ZM13.062 28.7527C10.898 28.7527 9.5 29.8051 9.5 30.5806C9.5 32.9655 22.43 33.2009 27.562 30.7729L24.312 29.1373C20.484 30.4067 10.852 30.5929 13.062 28.7527ZM5.812 30.9175C2.282 30.8637 0 32.0946 0 33.127C0 38.6262 36.188 38.363 36.188 32.7424C36.188 31.8115 34.758 31.3668 34.25 31.156C37.204 36.529 4.688 36.1089 4.688 32.9347C4.688 32.2146 7.094 31.493 9.312 31.83L7.438 31.0114C6.89946 30.9511 6.35619 30.9192 5.812 30.916V30.9175ZM40 34.6195C34.5 38.7123 20.58 40.1786 6.562 37.6491C20.578 42.1573 39.93 39.6494 40 34.6195Z" fill="black"/>
</svg>
