<svg width="40" height="40" viewBox="0 0 40 40" fill="none" xmlns="http://www.w3.org/2000/svg">
<path d="M23.4675 24.625C23.8553 25.4111 24.457 26.0719 25.2035 26.5313C25.95 26.9908 26.8109 27.2304 27.6875 27.2225C29.46 27.2225 30.5925 26.3362 30.5925 25.1125C30.5925 23.6462 29.4287 23.1262 27.4787 22.2725L26.4087 21.8137C23.3225 20.4987 21.2712 18.8512 21.2712 15.3687C21.2712 12.16 23.7162 9.71873 27.5362 9.71873C28.776 9.62877 30.0149 9.90628 31.0978 10.5166C32.1808 11.1268 33.0598 12.0428 33.625 13.15L30.2937 15.2887C30.0756 14.7401 29.6957 14.2708 29.2045 13.9433C28.7133 13.6157 28.134 13.4454 27.5437 13.455C27.2864 13.4291 27.0265 13.4571 26.7806 13.5372C26.5348 13.6174 26.3083 13.7479 26.1156 13.9204C25.923 14.0929 25.7684 14.3037 25.6618 14.5393C25.5551 14.7749 25.4987 15.0301 25.4962 15.2887C25.4962 16.5725 26.2912 17.0912 28.1212 17.8862L29.1912 18.3437C32.8262 19.9025 34.8775 21.4912 34.8775 25.0637C34.8775 28.915 31.8525 31.025 27.7887 31.025C26.2058 31.1257 24.6276 30.7662 23.2444 29.9899C21.8613 29.2136 20.7323 28.0536 19.9937 26.65L23.4675 24.625ZM8.35747 25C9.02997 26.1925 9.64122 27.2 11.1075 27.2C12.5125 27.2 13.4 26.65 13.4 24.5125V9.96873H17.6775V24.5725C17.6775 29.0012 15.08 31.0175 11.29 31.0175C9.95121 31.0899 8.62187 30.7555 7.47684 30.058C6.33181 29.3605 5.42474 28.3328 4.87497 27.11L8.35747 25Z" fill="#F5DE19"/>
</svg>
