<svg width="146" height="156" viewBox="0 0 146 156" fill="none" xmlns="http://www.w3.org/2000/svg">
<path d="M39.4821 120.305L39.482 120.305L39.4835 120.312C39.8227 121.828 40.4936 123.029 41.507 123.898C42.5155 124.762 43.8436 125.279 45.4729 125.466C45.7334 125.533 45.9759 125.567 46.1968 125.564L49.0426 140.099C44.7804 140.72 40.1853 139.911 35.2508 137.656C28.509 134.484 24.4611 129.567 23.074 122.9C23.0739 122.9 23.0738 122.899 23.0737 122.899L22.1101 117.977L38.5143 115.362L39.4821 120.305ZM56.0087 138.989L53.1651 124.466C54.5833 124.171 55.9463 123.309 57.2556 121.914L57.2558 121.914L57.2641 121.904C58.4446 120.509 58.9195 118.949 58.671 117.24L58.6713 117.24L58.6689 117.228L48.2262 63.8905L64.5106 61.2946L74.957 114.65C75.7143 118.518 75.4 122.06 74.0241 125.283C72.6474 128.508 70.2005 131.432 66.6658 134.051L66.664 134.052C63.1078 136.737 59.5563 138.378 56.0087 138.989Z" fill="url(#paint0_linear)" stroke="white" stroke-width="0.5"/>
<path d="M94.7132 78.0636L91.7238 64.027L95.4111 63.3491C97.1514 63.0292 98.4884 62.4318 99.3905 61.5336C100.299 60.6293 100.742 59.444 100.737 58.0037L100.737 58.0037L100.737 57.9985C100.726 57.546 100.667 57.0666 100.559 56.5618L100.556 56.5452L100.55 56.5292C99.9309 54.8145 98.9912 53.5535 97.7188 52.7741C96.4472 51.9952 94.8713 51.7145 93.0111 51.9075L93.0013 51.9085L92.9917 51.9102L89.2884 52.591L86.2763 38.4487L90.4374 37.684C97.9015 36.5669 103.827 37.3106 108.244 39.8744C112.654 42.4345 115.6 46.8325 117.061 53.1109C119.052 62.463 117.274 68.9682 111.846 72.7496C108.777 74.8244 104.466 76.3437 98.8975 77.2945L98.8945 77.2951C98.8239 77.308 98.6457 77.3408 98.36 77.3933C97.7067 77.5135 96.4911 77.7371 94.7132 78.0636ZM78.5739 115.922L62.9865 42.7291L79.3348 39.7245L94.9218 112.917L78.5739 115.922Z" fill="url(#paint1_linear)" stroke="white" stroke-width="0.5"/>
<defs>
<linearGradient id="paint0_linear" x1="38.0924" y1="26.8354" x2="88.4902" y2="154.153" gradientUnits="userSpaceOnUse">
<stop offset="0.380452" stop-color="#00C2FF"/>
<stop offset="1" stop-color="#65BBD7" stop-opacity="0"/>
</linearGradient>
<linearGradient id="paint1_linear" x1="83.5904" y1="0.138104" x2="105.207" y2="117.755" gradientUnits="userSpaceOnUse">
<stop offset="0.301114"/>
<stop offset="1" stop-opacity="0"/>
</linearGradient>
</defs>
</svg>
