<svg width="206" height="65" viewBox="0 0 206 65" fill="none" xmlns="http://www.w3.org/2000/svg">
<path d="M52.0859 51.2323C52.0859 54.4486 44.5391 57.0402 35.2344 57.0402C25.9297 57.0402 18.3828 54.4255 18.3828 51.2323C18.3828 48.0159 25.9297 45.4243 35.2344 45.4243C44.5391 45.4243 52.0859 48.0159 52.0859 51.2323Z" fill="#9EDCF2"/>
<path d="M52.0859 51.2323C52.0859 54.4486 44.5391 57.0402 35.2344 57.0402C25.9297 57.0402 18.3828 54.4255 18.3828 51.2323C18.3828 48.0159 25.9297 45.4243 35.2344 45.4243C44.5391 45.4243 52.0859 48.0159 52.0859 51.2323Z" fill="#7DBCE7"/>
<path d="M15.9922 34.1323L15.5 35.7983C15.5 35.7983 15.3828 36.4 15.9453 36.5157C16.5547 36.4925 16.5078 35.9372 16.4609 35.7752L15.9922 34.1323Z" fill="#9EDCF2"/>
<path d="M64.9531 27.1211L65 26.9128C60.0547 25.941 54.9922 25.9179 51.9219 26.0567C52.4141 24.275 52.5781 22.1924 52.5781 19.9017C52.5781 16.5928 51.3125 13.9549 49.2969 11.9649C49.6484 10.8311 50.1172 8.30891 48.8281 5.09256C48.8281 5.09256 46.5312 4.37525 41.3047 7.82299C39.2656 7.31393 37.0859 7.0594 34.9062 7.0594C32.5156 7.0594 30.1016 7.36021 27.8281 7.96182C22.4375 4.32897 20.0703 5.06942 20.0703 5.06942C18.5234 8.88739 19.4844 11.7335 19.7656 12.4277C17.9375 14.3714 16.8359 16.8473 16.8359 19.8785C16.8359 22.1693 17.0938 24.2287 17.75 26.0104C14.6562 25.8947 9.78125 25.941 5 26.8897L5.04688 27.098C9.82812 26.1493 14.75 26.1261 17.8203 26.2418C17.9609 26.612 18.125 26.9823 18.2891 27.3294C15.2422 27.4219 10.0625 27.8153 5.09375 29.2036L5.16406 29.4119C10.1797 28.0235 15.4062 27.6533 18.4297 27.5607C20.2578 30.8928 23.8203 33.0679 30.1953 33.7389C29.2812 34.3405 28.3672 35.3587 27.9922 37.0941C26.75 37.6726 22.8594 39.1072 20.5156 35.1273C20.5156 35.1273 19.2031 32.7671 16.6953 32.582C16.6953 32.582 14.2578 32.5357 16.5312 34.086C16.5312 34.086 18.1484 34.8496 19.2734 37.6957C19.2734 37.6957 20.75 42.555 27.8047 40.9815V45.9564C27.8047 45.9564 27.6641 47.7382 26 48.3166C26 48.3166 25.0156 48.9877 26.0703 49.3579C26.0703 49.3579 30.6406 49.7281 30.6406 46.0259V40.565C30.6406 40.565 30.4531 38.3899 31.5312 37.6495V46.6275C31.5312 46.6275 31.4609 48.7794 30.3359 49.5893C30.3359 49.5893 29.5859 50.9082 31.2266 50.5611C31.2266 50.5611 34.3672 50.1215 34.5078 46.4886L34.5781 37.3949H35.3281L35.3984 46.4886C35.5391 50.0984 38.6797 50.5611 38.6797 50.5611C40.3203 50.9314 39.5703 49.5893 39.5703 49.5893C38.4453 48.7794 38.375 46.6275 38.375 46.6275V37.7189C39.4531 38.5519 39.2656 40.565 39.2656 40.565V46.0259C39.2656 49.7281 43.8359 49.3579 43.8359 49.3579C44.8906 48.9877 43.9062 48.3166 43.9062 48.3166C42.2656 47.715 42.1016 45.9564 42.1016 45.9564V38.7833C42.1016 35.9834 40.9062 34.5025 39.7344 33.7389C46.5312 33.0679 49.7891 30.9159 51.2891 27.5376C54.2656 27.607 59.6328 27.9773 64.7422 29.4119L64.8125 29.2036C59.7266 27.7921 54.4062 27.4219 51.3828 27.3294C51.5234 26.9823 51.6406 26.6352 51.7578 26.265C54.8984 26.1493 59.9844 26.1493 64.9531 27.1211Z" fill="#010101"/>
<path d="M45.9219 19.7399C47.375 21.0588 48.2422 22.6323 48.2422 24.3214C48.2422 32.2813 42.2422 32.4896 34.8359 32.4896C27.4297 32.4896 21.4297 31.3789 21.4297 24.3214C21.4297 22.6323 22.2734 21.0588 23.7266 19.763C26.1406 17.5879 30.2188 18.7449 34.8359 18.7449C39.4531 18.7449 43.5078 17.5648 45.9219 19.7399Z" fill="#F5CCB3"/>
<path d="M30.3828 24.7378C30.3828 26.936 29.1406 28.6946 27.5938 28.6946C26.0469 28.6946 24.8047 26.9129 24.8047 24.7378C24.8047 22.5396 26.0469 20.781 27.5938 20.781C29.1406 20.7578 30.3828 22.5396 30.3828 24.7378Z" fill="white"/>
<path d="M29.4922 24.7841C29.4922 26.2419 28.6484 27.422 27.6406 27.422C26.6094 27.422 25.7891 26.2419 25.7891 24.7841C25.7891 23.3263 26.6328 22.1462 27.6406 22.1462C28.6484 22.1462 29.4922 23.3263 29.4922 24.7841Z" fill="#AF5C51"/>
<path d="M45.3594 24.7378C45.3594 26.936 44.1172 28.6946 42.5703 28.6946C41.0234 28.6946 39.7812 26.9129 39.7812 24.7378C39.7812 22.5396 41.0234 20.781 42.5703 20.781C44.0937 20.7578 45.3594 22.5396 45.3594 24.7378Z" fill="white"/>
<path d="M44.4453 24.7841C44.4453 26.2419 43.6016 27.422 42.5937 27.422C41.5625 27.422 40.7422 26.2419 40.7422 24.7841C40.7422 23.3263 41.5859 22.1462 42.5937 22.1462C43.625 22.1462 44.4453 23.3263 44.4453 24.7841Z" fill="#AF5C51"/>
<path d="M35.5859 28.255C35.5859 28.6252 35.2812 28.9491 34.8828 28.9491C34.5078 28.9491 34.1797 28.6483 34.1797 28.255C34.1797 27.8616 34.4844 27.5608 34.8828 27.5608C35.2578 27.5608 35.5859 27.8616 35.5859 28.255Z" fill="#AF5C51"/>
<path d="M33.2657 29.9904C33.2188 29.8747 33.2891 29.759 33.4063 29.7127C33.5235 29.6665 33.6407 29.7359 33.6875 29.8516C33.875 30.3606 34.3438 30.6846 34.8828 30.6846C35.4219 30.6846 35.8907 30.3375 36.0782 29.8516C36.125 29.7359 36.2422 29.6665 36.3594 29.7127C36.4766 29.759 36.5469 29.8747 36.5 29.9904C36.2657 30.6614 35.6094 31.1242 34.8828 31.1242C34.1563 31.1242 33.5 30.6614 33.2657 29.9904Z" fill="#AF5C51"/>
<path d="M17.7734 33.1374C17.7734 33.3225 17.5625 33.4614 17.2813 33.4614C17.0234 33.4614 16.7891 33.3225 16.7891 33.1374C16.7891 32.9523 17 32.8135 17.2813 32.8135C17.5625 32.8135 17.7734 32.9523 17.7734 33.1374Z" fill="#C4E5D9"/>
<path d="M19.1328 33.8777C19.1328 34.0628 18.9219 34.2016 18.6406 34.2016C18.3828 34.2016 18.1484 34.0628 18.1484 33.8777C18.1484 33.6925 18.3594 33.5537 18.6406 33.5537C18.9219 33.5537 19.1328 33.6925 19.1328 33.8777Z" fill="#C4E5D9"/>
<path d="M19.9531 34.8496C19.9531 35.0347 19.7422 35.1736 19.4609 35.1736C19.2031 35.1736 18.9688 35.0347 18.9688 34.8496C18.9688 34.6645 19.1797 34.5256 19.4609 34.5256C19.7422 34.5025 19.9531 34.6645 19.9531 34.8496Z" fill="#C4E5D9"/>
<path d="M20.7031 35.9602C20.7031 36.1453 20.4922 36.2841 20.2109 36.2841C19.9531 36.2841 19.7188 36.1453 19.7188 35.9602C19.7188 35.7751 19.9297 35.6362 20.2109 35.6362C20.4922 35.6131 20.7031 35.7751 20.7031 35.9602Z" fill="#C4E5D9"/>
<path d="M21.5234 36.9785C21.5234 37.1636 21.3125 37.3024 21.0312 37.3024C20.7734 37.3024 20.5391 37.1636 20.5391 36.9785C20.5391 36.7934 20.75 36.6545 21.0312 36.6545C21.3125 36.6545 21.5234 36.7934 21.5234 36.9785Z" fill="#C4E5D9"/>
<path d="M22.6484 37.8808C22.6484 38.066 22.4375 38.2048 22.1562 38.2048C21.8984 38.2048 21.6641 38.066 21.6641 37.8808C21.6641 37.6957 21.875 37.5569 22.1562 37.5569C22.4375 37.5338 22.6484 37.6957 22.6484 37.8808Z" fill="#C4E5D9"/>
<path d="M24.2188 38.4594C24.2188 38.6446 24.0078 38.7834 23.7266 38.7834C23.4687 38.7834 23.2344 38.6446 23.2344 38.4594C23.2344 38.2743 23.4453 38.1355 23.7266 38.1355C24.0078 38.1355 24.2188 38.2743 24.2188 38.4594Z" fill="#C4E5D9"/>
<path d="M25.7891 38.4594C25.7891 38.6446 25.5781 38.7834 25.2969 38.7834C25.0391 38.7834 24.8047 38.6446 24.8047 38.4594C24.8047 38.2743 25.0156 38.1355 25.2969 38.1355C25.5781 38.1355 25.7891 38.2743 25.7891 38.4594Z" fill="#C4E5D9"/>
<path d="M27.3828 38.2048C27.3828 38.3899 27.1719 38.5288 26.8906 38.5288C26.6328 38.5288 26.3984 38.3899 26.3984 38.2048C26.3984 38.0197 26.6094 37.8809 26.8906 37.8809C27.1484 37.8809 27.3828 38.0197 27.3828 38.2048Z" fill="#C4E5D9"/>
<path d="M126.228 23.2551C125.954 22.2234 125.414 21.2819 124.662 20.5248C123.91 19.7676 122.971 19.2214 121.942 18.9409C118.161 17.9209 103 17.9209 103 17.9209C103 17.9209 87.8391 17.9209 84.0583 18.9409C83.0285 19.2214 82.0904 19.7676 81.3381 20.5248C80.5857 21.2819 80.0456 22.2234 79.7716 23.2551C78.7583 27.0601 78.7583 35.0001 78.7583 35.0001C78.7583 35.0001 78.7583 42.9401 79.7716 46.7459C80.0456 47.7775 80.5857 48.719 81.3381 49.4762C82.0904 50.2334 83.0285 50.7795 84.0583 51.0601C87.8391 52.0792 103 52.0792 103 52.0792C103 52.0792 118.161 52.0792 121.942 51.0601C122.971 50.7795 123.91 50.2334 124.662 49.4762C125.414 48.719 125.954 47.7775 126.228 46.7459C127.242 42.9401 127.242 35.0001 127.242 35.0001C127.242 35.0001 127.242 27.0601 126.228 23.2551Z" fill="#EA5A47"/>
<path d="M98.0417 42.2082L110.713 34.9998L98.0417 27.7915V42.2082Z" fill="white"/>
<path d="M126.228 23.2551C125.954 22.2234 125.414 21.2819 124.662 20.5248C123.91 19.7676 122.971 19.2214 121.942 18.9409C118.161 17.9209 103 17.9209 103 17.9209C103 17.9209 87.8391 17.9209 84.0583 18.9409C83.0285 19.2214 82.0904 19.7676 81.3381 20.5248C80.5857 21.2819 80.0456 22.2234 79.7716 23.2551C78.7583 27.0601 78.7583 35.0001 78.7583 35.0001C78.7583 35.0001 78.7583 42.9401 79.7716 46.7459C80.0456 47.7775 80.5857 48.719 81.3381 49.4762C82.0904 50.2334 83.0285 50.7795 84.0583 51.0601C87.8391 52.0792 103 52.0792 103 52.0792C103 52.0792 118.161 52.0792 121.942 51.0601C122.971 50.7795 123.91 50.2334 124.662 49.4762C125.414 48.719 125.954 47.7775 126.228 46.7459C127.242 42.9401 127.242 35.0001 127.242 35.0001C127.242 35.0001 127.242 27.0601 126.228 23.2551Z" stroke="black" stroke-width="0.5" stroke-miterlimit="10"/>
<path d="M98.0416 42.2082L110.713 34.9998L98.0416 27.7915V42.2082Z" stroke="black" stroke-width="0.5" stroke-miterlimit="10" stroke-linecap="round" stroke-linejoin="round"/>
<path d="M189.333 14.1667H152.667C151.286 14.1667 150.167 15.286 150.167 16.6667V53.3334C150.167 54.7141 151.286 55.8334 152.667 55.8334H189.333C190.714 55.8334 191.833 54.7141 191.833 53.3334V16.6667C191.833 15.286 190.714 14.1667 189.333 14.1667Z" fill="#61B2E4"/>
<path d="M157.667 30H162.667V47.5H157.667V30Z" fill="white"/>
<path d="M160.167 26.2501C161.777 26.2501 163.083 24.9442 163.083 23.3334C163.083 21.7226 161.777 20.4167 160.167 20.4167C158.556 20.4167 157.25 21.7226 157.25 23.3334C157.25 24.9442 158.556 26.2501 160.167 26.2501Z" fill="white"/>
<path d="M176.417 34.1666C174.576 34.1666 173.083 35.1399 173.083 37.9166V47.4999H168.083V29.9999H173.083V31.8416H173.082C173.707 31.131 174.476 30.5619 175.339 30.1725C176.201 29.783 177.137 29.5822 178.083 29.5833C181.765 29.5833 184.75 32.3333 184.75 37.0833V47.4999H179.75V37.9166C179.75 35.1399 178.258 34.1666 176.417 34.1666Z" fill="white"/>
<path d="M189.333 14.1667H152.667C151.286 14.1667 150.167 15.286 150.167 16.6667V53.3334C150.167 54.7141 151.286 55.8334 152.667 55.8334H189.333C190.714 55.8334 191.833 54.7141 191.833 53.3334V16.6667C191.833 15.286 190.714 14.1667 189.333 14.1667Z" stroke="black" stroke-width="0.5" stroke-miterlimit="10"/>
<path d="M157.667 30H162.667V47.5H157.667V30Z" stroke="black" stroke-width="0.5" stroke-linecap="round" stroke-linejoin="round"/>
<path d="M160.167 26.2501C161.777 26.2501 163.083 24.9442 163.083 23.3334C163.083 21.7226 161.777 20.4167 160.167 20.4167C158.556 20.4167 157.25 21.7226 157.25 23.3334C157.25 24.9442 158.556 26.2501 160.167 26.2501Z" stroke="black" stroke-width="0.5" stroke-linecap="round" stroke-linejoin="round"/>
<path d="M176.417 34.1668C174.576 34.1668 173.083 35.1402 173.083 37.9168V47.5002H168.083V30.0002H173.083V31.8418H173.082C173.707 31.1312 174.476 30.5622 175.339 30.1727C176.201 29.7833 177.137 29.5824 178.083 29.5835C181.765 29.5835 184.75 32.3335 184.75 37.0835V47.5002H179.75V37.9168C179.75 35.1402 178.258 34.1668 176.417 34.1668Z" stroke="black" stroke-width="0.5" stroke-linecap="round" stroke-linejoin="round"/>
</svg>
